HIERARCHY
ROOT Root
{
  OFFSET 0.0 0.0 0.0
  CHANNELS 6 Xposition Yposition Zposition Zrotation Yrotation Xrotation
  JOINT Hips
  {
    OFFSET 0.0 100.0 0.0
    CHANNELS 6 Xposition Yposition Zposition Zrotation Yrotation Xrotation
    JOINT Spine1
    {
      OFFSET 5.003913 -0.037094 -0.013727
      CHANNELS 3 Zrotation Yrotation Xrotation
      JOINT Spine2
      {
        OFFSET 7.125363 -1e-06 0.0
        CHANNELS 3 Zrotation Yrotation Xrotation
        JOINT Chest
        {
          OFFSET 7.594027 1e-06 0.0
          CHANNELS 3 Zrotation Yrotation Xrotation
          JOINT Neck1
          {
            OFFSET 26.313086 -0.460272 -0.181672
            CHANNELS 3 Zrotation Yrotation Xrotation
            JOINT Neck2
            {
              OFFSET 8.045911 0.0 0.0
              CHANNELS 3 Zrotation Yrotation Xrotation
              JOINT Head
              {
                OFFSET 6.432774 0.0 0.0
                CHANNELS 3 Zrotation Yrotation Xrotation
                JOINT HeadEnd
                {
                  OFFSET 16.169773 0.06451 0.00362
                  CHANNELS 3 Zrotation Yrotation Xrotation
                }
                JOINT Jaw
                {
                  OFFSET 0.108741 3.12938 0.002639
                  CHANNELS 3 Zrotation Yrotation Xrotation
                }
                JOINT LeftEye
                {
                  OFFSET 4.45173 8.166359 3.206392
                  CHANNELS 3 Zrotation Yrotation Xrotation
                }
                JOINT RightEye
                {
                  OFFSET 4.436895 8.135758 -3.222429
                  CHANNELS 3 Zrotation Yrotation Xrotation
                }
              }
            }
          }
          JOINT LeftShoulder
          {
            OFFSET 23.218927 5.195579 1.621656
            CHANNELS 3 Zrotation Yrotation Xrotation
            JOINT LeftArm
            {
              OFFSET 15.902118 2e-06 -2e-06
              CHANNELS 3 Zrotation Yrotation Xrotation
              JOINT LeftForeArm
              {
                OFFSET 28.739307 0.0 -1e-06
                CHANNELS 3 Zrotation Yrotation Xrotation
                JOINT LeftHand
                {
                  OFFSET 27.093981 -4e-06 0.0
                  CHANNELS 3 Zrotation Yrotation Xrotation
                  JOINT LeftHandThumb1
                  {
                    OFFSET 2.276781 3.380274 0.83384
                    CHANNELS 3 Zrotation Yrotation Xrotation
                    JOINT LeftHandThumb2
                    {
                      OFFSET 4.705309 -1e-06 -1e-06
                      CHANNELS 3 Zrotation Yrotation Xrotation
                      JOINT LeftHandThumb3
                      {
                        OFFSET 2.798515 0.0 3e-06
                        CHANNELS 3 Zrotation Yrotation Xrotation
                        JOINT LeftHandThumbEnd
                        {
                          OFFSET 3.180793 4e-06 -4e-06
                          CHANNELS 3 Zrotation Yrotation Xrotation
                        }
                      }
                    }
                  }
                  JOINT LeftHandIndex1
                  {
                    OFFSET 3.247786 2.352677 0.137192
                    CHANNELS 3 Zrotation Yrotation Xrotation
                    JOINT LeftHandIndex2
                    {
                      OFFSET 6.367095 1e-06 0.0
                      CHANNELS 3 Zrotation Yrotation Xrotation
                      JOINT LeftHandIndex3
                      {
                        OFFSET 3.662364 0.0 0.0
                        CHANNELS 3 Zrotation Yrotation Xrotation
                        JOINT LeftHandIndex4
                        {
                          OFFSET 2.329242 4e-06 -4e-06
                          CHANNELS 3 Zrotation Yrotation Xrotation
                          JOINT LeftHandIndexEnd
                          {
                            OFFSET 2.767823 1e-06 0.0
                            CHANNELS 3 Zrotation Yrotation Xrotation
                          }
                        }
                      }
                    }
                  }
                  JOINT LeftHandMiddle1
                  {
                    OFFSET 3.163612 0.945023 -0.406112
                    CHANNELS 3 Zrotation Yrotation Xrotation
                    JOINT LeftHandMiddle2
                    {
                      OFFSET 6.276789 3e-06 0.0
                      CHANNELS 3 Zrotation Yrotation Xrotation
                      JOINT LeftHandMiddle3
                      {
                        OFFSET 4.35652 -1e-06 4e-06
                        CHANNELS 3 Zrotation Yrotation Xrotation
                        JOINT LeftHandMiddle4
                        {
                          OFFSET 2.996877 0.0 8e-06
                          CHANNELS 3 Zrotation Yrotation Xrotation
                          JOINT LeftHandMiddleEnd
                          {
                            OFFSET 2.323256 3e-06 -4e-06
                            CHANNELS 3 Zrotation Yrotation Xrotation
                          }
                        }
                      }
                    }
                  }
                  JOINT LeftHandRing1
                  {
                    OFFSET 2.882606 -0.309162 0.107445
                    CHANNELS 3 Zrotation Yrotation Xrotation
                    JOINT LeftHandRing2
                    {
                      OFFSET 6.033198 0.0 4e-06
                      CHANNELS 3 Zrotation Yrotation Xrotation
                      JOINT LeftHandRing3
                      {
                        OFFSET 4.350578 3e-06 0.0
                        CHANNELS 3 Zrotation Yrotation Xrotation
                        JOINT LeftHandRing4
                        {
                          OFFSET 2.651321 2e-06 -7e-06
                          CHANNELS 3 Zrotation Yrotation Xrotation
                          JOINT LeftHandRingEnd
                          {
                            OFFSET 1.937663 1e-06 -4e-06
                            CHANNELS 3 Zrotation Yrotation Xrotation
                          }
                        }
                      }
                    }
                  }
                  JOINT LeftHandPinky1
                  {
                    OFFSET 2.865315 -1.525436 0.575687
                    CHANNELS 3 Zrotation Yrotation Xrotation
                    JOINT LeftHandPinky2
                    {
                      OFFSET 5.54936 1e-06 -8e-06
                      CHANNELS 3 Zrotation Yrotation Xrotation
                      JOINT LeftHandPinky3
                      {
                        OFFSET 3.070974 0.0 -4e-06
                        CHANNELS 3 Zrotation Yrotation Xrotation
                        JOINT LeftHandPinky4
                        {
                          OFFSET 1.549672 1e-06 0.0
                          CHANNELS 3 Zrotation Yrotation Xrotation
                          JOINT LeftHandPinkyEnd
                          {
                            OFFSET 1.952123 0.0 0.0
                            CHANNELS 3 Zrotation Yrotation Xrotation
                          }
                        }
                      }
                    }
                  }
                }
              }
            }
          }
          JOINT RightShoulder
          {
            OFFSET 23.161716 5.296122 -1.380114
            CHANNELS 3 Zrotation Yrotation Xrotation
            JOINT RightArm
            {
              OFFSET -16.027195 -2e-06 1.1e-05
              CHANNELS 3 Zrotation Yrotation Xrotation
              JOINT RightForeArm
              {
                OFFSET -28.736639 4e-06 2e-06
                CHANNELS 3 Zrotation Yrotation Xrotation
                JOINT RightHand
                {
                  OFFSET -27.133619 6e-06 0.0
                  CHANNELS 3 Zrotation Yrotation Xrotation
                  JOINT RightHandThumb1
                  {
                    OFFSET -2.274328 -3.351035 -0.83067
                    CHANNELS 3 Zrotation Yrotation Xrotation
                    JOINT RightHandThumb2
                    {
                      OFFSET -4.703594 -3e-06 2e-06
                      CHANNELS 3 Zrotation Yrotation Xrotation
                      JOINT RightHandThumb3
                      {
                        OFFSET -2.794935 -4e-06 -3e-06
                        CHANNELS 3 Zrotation Yrotation Xrotation
                        JOINT RightHandThumbEnd
                        {
                          OFFSET -3.183852 4e-06 1e-06
                          CHANNELS 3 Zrotation Yrotation Xrotation
                        }
                      }
                    }
                  }
                  JOINT RightHandIndex1
                  {
                    OFFSET -3.253496 -2.33755 -0.127667
                    CHANNELS 3 Zrotation Yrotation Xrotation
                    JOINT RightHandIndex2
                    {
                      OFFSET -6.344434 0.0 0.0
                      CHANNELS 3 Zrotation Yrotation Xrotation
                      JOINT RightHandIndex3
                      {
                        OFFSET -3.654871 0.0 -8e-06
                        CHANNELS 3 Zrotation Yrotation Xrotation
                        JOINT RightHandIndex4
                        {
                          OFFSET -2.327586 -1e-06 0.0
                          CHANNELS 3 Zrotation Yrotation Xrotation
                          JOINT RightHandIndexEnd
                          {
                            OFFSET -2.770001 3e-06 8e-06
                            CHANNELS 3 Zrotation Yrotation Xrotation
                          }
                        }
                      }
                    }
                  }
                  JOINT RightHandMiddle1
                  {
                    OFFSET -3.168223 -0.944764 0.411762
                    CHANNELS 3 Zrotation Yrotation Xrotation
                    JOINT RightHandMiddle2
                    {
                      OFFSET -6.266691 -1e-06 -4e-06
                      CHANNELS 3 Zrotation Yrotation Xrotation
                      JOINT RightHandMiddle3
                      {
                        OFFSET -4.348901 0.0 0.0
                        CHANNELS 3 Zrotation Yrotation Xrotation
                        JOINT RightHandMiddle4
                        {
                          OFFSET -3.00024 2e-06 -4e-06
                          CHANNELS 3 Zrotation Yrotation Xrotation
                          JOINT RightHandMiddleEnd
                          {
                            OFFSET -2.321477 -4e-06 -4e-06
                            CHANNELS 3 Zrotation Yrotation Xrotation
                          }
                        }
                      }
                    }
                  }
                  JOINT RightHandRing1
                  {
                    OFFSET -2.885654 0.293261 -0.119232
                    CHANNELS 3 Zrotation Yrotation Xrotation
                    JOINT RightHandRing2
                    {
                      OFFSET -6.032835 -1e-06 -4e-06
                      CHANNELS 3 Zrotation Yrotation Xrotation
                      JOINT RightHandRing3
                      {
                        OFFSET -4.33881 0.0 -4e-06
                        CHANNELS 3 Zrotation Yrotation Xrotation
                        JOINT RightHandRing4
                        {
                          OFFSET -2.654903 -4e-06 -4e-06
                          CHANNELS 3 Zrotation Yrotation Xrotation
                          JOINT RightHandRingEnd
                          {
                            OFFSET -1.935122 0.0 4e-06
                            CHANNELS 3 Zrotation Yrotation Xrotation
                          }
                        }
                      }
                    }
                  }
                  JOINT RightHandPinky1
                  {
                    OFFSET -2.866241 1.503904 -0.60527
                    CHANNELS 3 Zrotation Yrotation Xrotation
                    JOINT RightHandPinky2
                    {
                      OFFSET -5.553177 -2e-06 0.0
                      CHANNELS 3 Zrotation Yrotation Xrotation
                      JOINT RightHandPinky3
                      {
                        OFFSET -3.062664 -1e-06 -4e-06
                        CHANNELS 3 Zrotation Yrotation Xrotation
                        JOINT RightHandPinky4
                        {
                          OFFSET -1.546529 2e-06 4e-06
                          CHANNELS 3 Zrotation Yrotation Xrotation
                          JOINT RightHandPinkyEnd
                          {
                            OFFSET -1.952341 0.0 -4e-06
                            CHANNELS 3 Zrotation Yrotation Xrotation
                          }
                        }
                      }
                    }
                  }
                }
              }
            }
          }
        }
      }
    }
    JOINT LeftLeg
    {
      OFFSET -8.443107 2.567604 10.043214
      CHANNELS 3 Zrotation Yrotation Xrotation
      JOINT LeftShin
      {
        OFFSET 43.229198 1e-06 -1e-06
        CHANNELS 3 Zrotation Yrotation Xrotation
        JOINT LeftFoot
        {
          OFFSET 42.298611 1e-06 1e-06
          CHANNELS 3 Zrotation Yrotation Xrotation
          JOINT LeftToeBase
          {
            OFFSET 14.165858 1e-06 0.0
            CHANNELS 3 Zrotation Yrotation Xrotation
            JOINT LeftToeEnd
            {
              OFFSET 6.7141 -0.234461 0.0
              CHANNELS 3 Zrotation Yrotation Xrotation
            }
          }
        }
      }
    }
    JOINT RightLeg
    {
      OFFSET -8.303923 2.592729 -10.047278
      CHANNELS 3 Zrotation Yrotation Xrotation
      JOINT RightShin
      {
        OFFSET -43.369682 0.0 1e-06
        CHANNELS 3 Zrotation Yrotation Xrotation
        JOINT RightFoot
        {
          OFFSET -42.260784 4e-06 2e-06
          CHANNELS 3 Zrotation Yrotation Xrotation
          JOINT RightToeBase
          {
            OFFSET -14.222245 -2e-06 -1e-06
            CHANNELS 3 Zrotation Yrotation Xrotation
            JOINT RightToeEnd
            {
              OFFSET -6.660062 0.232574 -2e-06
              CHANNELS 3 Zrotation Yrotation Xrotation
            }
          }
        }
      }
    }
  }
}
MOTION
Frames: 4
Frame Time: 0.03333333333333333
0.0 0.0 0.0 0.0 -0.0 0.0 -1.820222 93.602333 5.592099 91.696648 4.627361 90.33918 8.347811 -0.973649 -0.341632 -7.309458 -0.7986 -0.425002 21.170734 0.617889 -1.882178 20.078367 5.996648 2.657904 -2.367219 -0.824873 -0.511416 -37.710976 -1.154425 -1.284717 6e-06 0.0 -0.0 0.08381 0.012271 0.077231 0.144674 0.021429 0.07376 0.152259 0.00165 0.081476 -31.038322 -81.43792 43.136723 37.97406 -58.085133 -40.758106 86.804352 0.029444 0.446498 5.455323 20.73068 51.917355 17.636627 -26.322733 52.411201 -19.466661 -14.395598 29.410395 1e-06 -8.774819 -1e-06 17.010546 -18.972633 6.088681 -0.609776 -1.795654 -3.889327 -4.80709 -11.046811 -2.937849 2e-06 -20.976019 -2e-06 -5.019971 -25.033556 -4.031882 6e-06 2e-06 2e-06 -10.634533 -5.686972 -3.565587 10.573272 -17.922951 -3.113902 1e-06 -13.821212 -0.0 -0.501779 -31.181505 -4.027017 -11.425684 -58.564835 6.858076 -13.982712 -7.150199 -2.875042 13.772727 -8.401489 -3.21824 0.347731 -34.211555 0.771654 -0.963028 -17.733372 2.621017 -1e-06 -1e-06 1e-06 -17.346418 -20.095221 -4.201781 21.757559 -1.638372 3.866427 0.0 -6.338824 1e-06 -1.69759 -22.591747 -6.194009 0.0 -4e-06 0.0 45.536865 -82.67662 150.289963 51.068394 -53.522854 -54.593357 108.444427 0.293355 0.75059 -15.40298 19.08522 54.284813 22.182119 -20.375891 49.933315 -16.701811 -16.74353 28.476524 -2e-06 -12.6906 -3e-06 17.23271 -18.309528 2.153279 -0.105917 -1.513856 -4.275882 -5.039043 -5.612872 -2.953554 4e-06 -11.020524 -3e-06 -6.1113 -15.89533 -3.840472 2e-06 0.0 2e-06 -10.283371 -5.680289 -4.341838 11.028293 -11.302404 -2.372632 -1.384271 -14.238581 -6.320121 -0.625443 -26.924189 -3.827598 -4.115944 -50.635883 -4.070132 -13.708523 -7.363478 -3.720939 18.141146 -14.052739 -3.242672 5e-06 -18.78727 -3e-06 -0.429712 -8.456045 2.555503 0.0 -0.0 -0.0 -15.923538 -20.094484 -5.473582 30.41921 -7.190824 1.735928 2e-06 -8.162926 0.0 -1.861903 -22.861473 -6.167943 -0.0 -3e-06 -1e-06 163.953629 -4.584447 -5.298868 49.189056 -0.076347 0.235589 -91.89888 0.177244 -6.592422 -9.292986 1.638845 2.055108 -0.999998 -0.0 -0.0 -26.164738 -6.186115 -2.98569 63.976593 -0.119831 0.189158 -74.482811 0.465529 -4.897416 -18.42395 1.024124 1.562859 -1.0 0.0 0.0 
0.0 0.0 0.0 0.0 -0.0 0.0 -1.691322 93.572021 5.792733 91.679817 4.647477 90.406143 8.339378 -0.935516 -0.366566 -7.31967 -0.778263 -0.418722 21.101723 0.539336 -1.954676 19.955393 6.211452 2.679356 -2.382903 -0.884459 -0.562572 -37.41795 -1.045826 -1.421282 6e-06 0.0 -0.0 0.060333 0.007067 0.082398 0.122599 0.019099 0.074532 0.132147 -0.006359 0.09011 -30.880613 -81.365601 42.983372 38.012154 -57.791576 -41.132229 86.514893 0.138681 0.452075 5.528043 20.4188 50.983349 17.636623 -26.322731 52.411194 -19.466652 -14.395592 29.410389 1e-06 -8.774819 -2e-06 17.000835 -18.901716 6.108442 -0.609777 -1.795653 -3.889328 -4.807089 -11.046809 -2.93785 3e-06 -20.976015 -1e-06 -5.01997 -25.033556 -4.031881 7e-06 4e-06 1e-06 -10.634531 -5.686971 -3.565588 10.573268 -17.922947 -3.113899 2e-06 -13.821209 -0.0 -0.501778 -31.181501 -4.027018 -11.332587 -58.74094 6.884945 -13.982712 -7.150198 -2.875041 13.772725 -8.401489 -3.21824 0.34773 -34.211552 0.771656 -0.963029 -17.733366 2.621017 1e-06 0.0 1e-06 -17.346413 -20.095217 -4.201783 21.757551 -1.638373 3.866429 1e-06 -6.338822 1e-06 -1.697588 -22.59174 -6.194007 -1e-06 -6e-06 -1e-06 45.415775 -82.585342 150.425919 50.726917 -53.543488 -54.710533 108.095497 0.177317 0.669268 -15.597586 18.870914 53.527447 22.182116 -20.3759 49.933323 -16.701813 -16.74353 28.476532 -2e-06 -12.690602 -1e-06 17.184217 -18.25602 2.187441 -0.105918 -1.513856 -4.275882 -5.039042 -5.612872 -2.953554 3e-06 -11.020527 -0.0 -6.111301 -15.895338 -3.840471 -0.0 1e-06 -0.0 -10.28337 -5.680289 -4.341839 11.028296 -11.302406 -2.372632 -1.384269 -14.238583 -6.32012 -0.62544 -26.924194 -3.827598 -3.98914 -50.593739 -4.052103 -13.708527 -7.363478 -3.720938 18.141151 -14.052742 -3.242674 6e-06 -18.787271 -4e-06 -0.429713 -8.456048 2.555505 1e-06 -0.0 0.0 -15.923538 -20.09449 -5.473582 30.419218 -7.190826 1.735927 2e-06 -8.162929 0.0 -1.861903 -22.861479 -6.167946 1e-06 -3e-06 -0.0 164.024902 -4.574916 -5.412298 49.386551 -0.07932 0.260457 -92.012596 0.367829 -6.567841 -9.384573 1.65853 2.06972 -0.999998 -0.0 0.0 -25.98086 -6.308888 -3.019111 63.996689 -0.105463 0.166973 -74.708923 0.595356 -5.139482 -18.70145 0.99418 1.55881 -1.000002 0.0 0.0 
0.0 0.0 0.0 0.0 -0.0 0.0 -1.536023 93.505302 5.941006 91.691017 4.600539 90.503555 8.29608 -0.951107 -0.38207 -7.330334 -0.786675 -0.434994 21.044525 0.473625 -2.013051 19.826731 6.346532 2.704156 -2.414396 -0.906689 -0.664497 -37.189964 -0.989557 -1.49981 6e-06 0.0 -0.0 0.046642 0.004257 0.074037 0.09596 0.015882 0.064252 0.109537 -0.009111 0.082521 -30.882154 -81.362007 42.960506 37.768486 -57.554291 -41.14608 86.409851 0.23815 0.455968 5.512072 20.170481 50.092319 17.636641 -26.322737 52.411201 -19.466665 -14.395602 29.410389 -0.0 -8.774823 -2e-06 16.977303 -18.864695 6.115107 -0.609778 -1.795654 -3.889328 -4.80709 -11.046813 -2.93785 4e-06 -20.976021 1e-06 -5.019973 -25.033566 -4.031881 7e-06 3e-06 1e-06 -10.634538 -5.686971 -3.565588 10.573277 -17.922953 -3.1139 4e-06 -13.821211 -0.0 -0.501777 -31.181505 -4.027016 -11.391726 -58.845482 6.949842 -13.982719 -7.150198 -2.875043 13.772734 -8.401493 -3.218242 0.347736 -34.211555 0.771656 -0.963028 -17.733372 2.62102 1e-06 0.0 -1e-06 -17.346426 -20.095221 -4.201782 21.757561 -1.638377 3.866429 1e-06 -6.338824 -1e-06 -1.697588 -22.591745 -6.194008 -0.0 -5e-06 0.0 44.950871 -82.486908 150.875809 50.213398 -53.54903 -54.457661 107.910133 0.226824 0.57506 -15.800737 18.782314 52.874241 22.182121 -20.375898 49.933311 -16.701815 -16.743532 28.476526 -3e-06 -12.690606 -2e-06 17.164587 -18.212248 2.184311 -0.10592 -1.513855 -4.275882 -5.03904 -5.612873 -2.953557 4e-06 -11.020525 -1e-06 -6.1113 -15.895338 -3.840468 1e-06 -1e-06 -3e-06 -10.283373 -5.680289 -4.341839 11.028296 -11.302406 -2.372631 -1.384271 -14.238585 -6.320121 -0.625441 -26.924198 -3.827598 -3.937578 -50.53614 -4.079612 -13.708526 -7.363477 -3.720938 18.141153 -14.05274 -3.242676 6e-06 -18.787271 -3e-06 -0.429711 -8.456045 2.555502 0.0 -0.0 -0.0 -15.923539 -20.094482 -5.473581 30.419218 -7.190827 1.735927 3e-06 -8.162929 0.0 -1.861903 -22.861473 -6.167943 2e-06 -2e-06 0.0 163.938568 -4.502887 -5.476466 49.667439 -0.073515 0.269158 -92.179138 0.388703 -6.425549 -9.356926 1.661133 2.08129 -1.0 -0.0 0.0 -25.941095 -6.507548 -3.071378 64.08593 -0.091873 0.154293 -75.020958 0.753227 -5.318202 -18.888807 0.97708 1.556017 -1.000002 0.0 0.0 
0.0 0.0 0.0 0.0 -0.0 0.0 -1.396123 93.41774 6.073692 91.67897 4.47844 90.603516 8.239339 -0.989133 -0.392581 -7.361965 -0.803584 -0.444562 20.998354 0.428118 -2.059612 19.703201 6.398563 2.711 -2.434717 -0.889632 -0.739512 -37.11961 -0.962385 -1.540895 6e-06 0.0 0.0 0.042943 0.003719 0.063417 0.077685 0.013956 0.053134 0.094508 -0.008716 0.071586 -31.045843 -81.424896 43.081837 37.402798 -57.326542 -41.024086 86.399063 0.218687 0.452051 5.517472 19.976622 49.605808 17.636627 -26.322733 52.411205 -19.466663 -14.395597 29.410395 0.0 -8.774821 -2e-06 16.922407 -18.855326 6.129808 -0.609778 -1.795654 -3.889328 -4.80709 -11.046813 -2.937852 5e-06 -20.976019 -2e-06 -5.01997 -25.033562 -4.031885 7e-06 1e-06 1e-06 -10.634536 -5.686972 -3.565589 10.573275 -17.922951 -3.113901 2e-06 -13.821213 -0.0 -0.501775 -31.181507 -4.027019 -11.439227 -58.898697 6.970414 -13.982717 -7.150199 -2.875044 13.772729 -8.401493 -3.218241 0.347733 -34.211559 0.771655 -0.963028 -17.733372 2.621017 0.0 -1e-06 -1e-06 -17.346422 -20.095221 -4.201784 21.757557 -1.638374 3.86643 1e-06 -6.338824 -0.0 -1.69759 -22.591747 -6.194008 0.0 -5e-06 -0.0 44.614922 -82.381836 151.241089 49.730858 -53.55962 -54.128468 107.819077 0.313852 0.499935 -16.040564 18.768332 52.507504 22.182106 -20.375887 49.9333 -16.701803 -16.743525 28.476521 -2e-06 -12.690597 -2e-06 17.156271 -18.191299 2.183249 -0.10592 -1.513856 -4.275878 -5.03904 -5.61287 -2.953556 3e-06 -11.020523 -0.0 -6.111299 -15.89533 -3.840468 1e-06 -0.0 -4e-06 -10.283367 -5.680288 -4.341838 11.028287 -11.3024 -2.37263 -1.384269 -14.238575 -6.32012 -0.625441 -26.924181 -3.827598 -3.94755 -50.513 -4.05605 -13.708521 -7.363474 -3.720936 18.141144 -14.052735 -3.242674 5e-06 -18.787264 -3e-06 -0.429713 -8.456042 2.555501 1e-06 -1e-06 -1e-06 -15.923534 -20.094479 -5.473582 30.419197 -7.190822 1.735928 2e-06 -8.162924 1e-06 -1.861905 -22.861467 -6.167941 1e-06 -3e-06 -1e-06 163.727539 -4.467035 -5.519441 50.008514 -0.065833 0.256519 -92.397812 0.395805 -6.313109 -9.319209 1.655754 2.084505 -1.0 0.0 -0.0 -25.982595 -6.660112 -3.126267 64.149628 -0.081511 0.130076 -75.488861 0.814755 -5.439991 -18.812937 0.963178 1.556359 -1.000001 0.0 0.0 
